PathFileType	4	(X/Y/Z)	Patient4_TMGait_0pt2_02_left_23.trc.trc
DataRate	CameraRate	NumFrames	NumMarkers	Units	OrigDataRate	OrigDataStartFrame	OrigNumFrames
48.109965635739	48.109965635739	4	33	mm	48.109965635739	36	       141
Frame#	Time	R.Midfoot.Superior			Sacral			L.Shoulder			Chest			R.Shoulder			Neck			R.ASIS			L.ASIS			R.Thigh.Superior			R.Thigh.Lateral			R.Thigh.Inferior			R.Patella			L.Thigh.Superior			L.Thigh.Lateral			L.Thigh.Inferior			L.Patella			L.Shank.Superior			L.Shank.Lateral			L.Shank.Inferior			R.Shank.Superior			R.Shank.Lateral			R.Shank.Inferior			R.Heel			R.Midfoot.Lateral			R.Toe			L.Heel			L.Midfoot.Lateral			L.Midfoot.Superior			L.Toe			L.Elbow			L.Wrist			R.Elbow			R.Wrist			
		X1	Y1	Z1	X2	Y2	Z2	X3	Y3	Z3	X4	Y4	Z4	X5	Y5	Z5	X6	Y6	Z6	X7	Y7	Z7	X8	Y8	Z8	X9	Y9	Z9	X10	Y10	Z10	X11	Y11	Z11	X12	Y12	Z12	X13	Y13	Z13	X14	Y14	Z14	X15	Y15	Z15	X16	Y16	Z16	X17	Y17	Z17	X18	Y18	Z18	X19	Y19	Z19	X20	Y20	Z20	X21	Y21	Z21	X22	Y22	Z22	X23	Y23	Z23	X24	Y24	Z24	X25	Y25	Z25	X26	Y26	Z26	X27	Y27	Z27	X28	Y28	Z28	X29	Y29	Z29	X30	Y30	Z30	X31	Y31	Z31	X32	Y32	Z32	X33	Y33	Z33	

36	52.557500000000	1071.617479430091	99.025925433161	594.524749047785	1004.967481918975	1013.543322601185	536.777112550794	1161.199127446379	1424.329307750821	311.907860133826	1298.855484937658	1349.474716074642	441.472343618664	1269.011947395862	1431.704428488171	626.011175262336	1184.422631444410	1489.825851465517	465.603891252017	1245.863961138549	928.483796718223	606.677500067611	1182.622360008993	956.393460687682	340.730765219504	1247.764287751433	719.764042082020	570.832303944738	1163.264292572291	619.363074205533	645.171821115348	1213.561515003693	558.813701430896	552.818513445929	1200.477332332749	466.911357575377	561.313680704856	1253.736429897349	763.054356064351	368.463375254023	1183.970820039469	636.387319500064	303.527809076938	1284.043804542057	571.263116194876	359.312521200372	1294.302287829485	500.850348317886	360.985746191819	1271.758706117988	428.466982917669	348.945667084931	1188.533671144659	311.442955491531	293.539854323827	1252.121447515853	198.767732078147	351.215798777787	1147.923847259709	386.822824475249	574.209958743697	1064.111280404242	304.151757730129	651.767652458833	1066.515354689745	203.456318757886	585.108218557584	893.951909132245	63.121911282360	578.743542552736	983.755665424959	45.887712226334	641.875991172039	1188.393072775255	38.569569447736	609.299980378516	1135.097359812624	39.850632314133	385.704063198137	1207.787368401412	37.346666151912	304.309186535710	1291.294366449828	98.422815532818	329.882618461479	1418.494003221279	48.032079690707	298.636577904068	1039.163216340664	1093.032451462962	208.192618310040	1061.811473317301	832.349664893023	225.252945029646	1491.368575962397	1182.989482279753	710.249061783884	1667.418978141482	1316.029201392740	586.991980741898	
37	52.578285714286	1068.350580725228	99.445499927273	594.538706750014	1005.404997461606	1014.488783302725	529.306078900797	1164.534755364414	1425.338559995686	306.572851397363	1300.442294780162	1350.303188731320	437.821433752205	1268.371641802735	1432.462405427221	622.063505918625	1185.697997890410	1490.728421812912	460.891113305998	1245.423882495690	929.439071916549	602.108124186572	1185.037085782955	956.681196735260	335.470655706486	1246.466410770076	720.381069666195	567.537108785110	1160.894209228243	620.952962134366	642.126576245774	1211.616002264024	559.394430979426	550.733507841652	1198.022231362497	467.690299703753	559.734208496062	1254.984013960105	763.043857788464	364.195558218231	1184.887967228390	636.373763561993	299.490423849906	1284.586994991938	571.084259027910	355.635445018982	1294.454662965823	500.301053596514	357.759057144555	1271.250514524624	427.812552005995	346.291166838209	1186.999064144941	311.136012085388	291.781187719157	1249.354198376853	198.309936674743	350.327724809239	1145.178641057647	387.945289291225	572.910808196679	1060.633768603133	306.173556700557	650.622622289632	1063.336963758507	204.838460945754	584.729800638062	890.257899456734	65.198499182711	578.740166559232	979.955473707768	47.041807914577	641.844958220550	1184.400949340912	38.472375255749	609.245384851873	1130.983524981630	39.922332819461	385.700531401449	1203.627120880395	37.370838897798	304.251596251620	1287.245814644606	98.309329712138	329.818565093012	1414.413134984736	47.644585302547	298.548832104716	1050.528589866102	1092.228311308745	197.982267358816	1080.964609867390	832.038721637274	210.556044355547	1487.797308746181	1180.617154253075	708.194391640322	1669.821458900605	1308.987317374994	587.796241368401	
38	52.599071428571	1065.241429597668	99.842732510446	594.580346531542	1005.886019270763	1015.443085831238	521.726065965215	1167.949373552150	1426.337086566801	301.127203668189	1301.966383289549	1351.198344924681	434.194948327253	1267.495380879767	1433.367595987416	618.053700086654	1186.885841692401	1491.672453122409	456.016985567355	1245.014205125344	930.531241917958	597.556588761931	1187.557981837435	956.974562906307	330.227176208071	1245.367134099981	721.144096198593	564.265104141345	1158.756288256016	622.630682404393	639.061628996960	1210.053680397164	560.065181875981	548.698615417579	1195.966071832921	468.444989085332	558.218595057509	1256.159333570660	762.906508865150	359.717584217409	1185.440766070716	636.305415591761	295.388449126541	1284.704847050151	570.768494743960	351.808806931623	1294.125216183629	499.711007931011	354.448069809079	1270.364227200798	427.127026513297	343.574674211377	1185.201719100260	310.719037995287	289.970886433140	1246.465695740603	197.827251508103	349.413298724035	1142.756411323520	389.165212123506	571.677796259224	1057.312810232995	308.398555535971	649.491701495744	1060.354384271346	206.363342643110	584.416581934067	886.640599858001	67.469877577067	578.748485835429	976.214837554509	48.274104446945	641.835598109436	1180.446862728743	38.383096357288	609.180985094010	1126.850318888572	39.927345159544	385.698311217327	1199.445802778116	37.351285385971	304.191627715207	1283.163057679421	98.166510957307	329.749936760717	1410.314301740821	47.253315892878	298.453596332046	1062.853317048430	1091.409912924202	187.878348667984	1101.260444437628	832.053202627629	196.526139721374	1483.072894606160	1177.515725514893	706.377547193762	1671.807392021189	1300.024142532199	589.208397234648	
39	52.619857142857	1062.329338938599	100.223405364537	594.659894764161	1006.404238916818	1016.425532340072	514.077824551433	1171.410773790859	1427.358348101404	295.605418093159	1303.404791412842	1352.183372633576	430.602929299402	1266.372678551806	1434.421491415862	613.982720636232	1187.971934641533	1492.675737205205	451.005251630639	1244.643225632831	931.781558535752	593.035058866319	1190.172161868382	957.307393056549	325.026019134626	1244.543455156070	722.066556581530	561.043093053824	1156.952169799087	624.377395395965	635.979197810131	1209.015893753721	560.827461094475	546.719610634106	1194.476013239952	469.136957895232	556.786815869141	1257.256683963176	762.669200227854	355.076001390017	1185.631943075250	636.209991029208	291.249938731945	1284.378809750965	570.336894487233	347.885438792994	1293.290579254581	499.110591511029	351.103708261917	1269.087717294697	426.437643832170	340.835632485164	1183.140786211749	310.218022799397	288.128135820475	1243.458560602466	197.345381837442	348.498205612194	1140.793594832417	390.475715656306	570.517838239295	1054.257280220976	310.850910616100	648.371521739035	1057.647148532993	208.051536358695	584.170795935412	883.144096518498	70.025604721208	578.763639928904	972.555058435556	49.635581080724	641.847118005848	1176.529244288227	38.284428153370	609.119010545322	1122.710175109788	39.881437289810	385.697022701387	1195.258184622108	37.300187037280	304.131577116536	1279.058855492530	98.007972535475	329.679951947138	1406.208717248707	46.879355048070	298.356882431263	1076.083969215843	1090.654516533535	177.973711130725	1122.644294020255	832.484882710760	183.357574088091	1477.066127653314	1173.659215278692	704.781522524860	1673.194158926435	1288.850604008909	591.255120612717	
